<svg xmlns="http://www.w3.org/2000/svg" viewBox="0 0 320 240" width="320" height="240" role="img"><rect width="320" height="240" rx="18" fill="#FFFDF6"/>
    <line x1="10" y1="40" x2="310" y2="40" stroke="#c98a1d" stroke-width="3"/>
    <polygon points="40,40 66,40 53,74" fill="#c9473f"/><polygon points="80,40 106,40 93,74" fill="#2f8f6b"/>
    <polygon points="120,40 146,40 133,74" fill="#e0a91d"/><polygon points="160,40 186,40 173,74" fill="#3b83c9"/>
    <polygon points="200,40 226,40 213,74" fill="#c9473f"/><polygon points="240,40 266,40 253,74" fill="#2f8f6b"/>
    <g>
      <path d="M120 150 q14 -34 40 0 z" fill="#ffcf6b"/><rect x="150" y="150" width="20" height="34" rx="4" fill="#c9473f"/>
      <ellipse cx="160" cy="190" rx="34" ry="10" fill="#e0a91d"/>
    </g>
    <path d="M92 118 q14 -30 36 0 z" fill="#ffcf6b"/><rect x="102" y="118" width="16" height="26" rx="4" fill="#2f8f6b"/>
    <path d="M196 118 q14 -30 36 0 z" fill="#ffcf6b"/><rect x="206" y="118" width="16" height="26" rx="4" fill="#3b83c9"/>
    <circle cx="60" cy="150" r="5" fill="#c9473f"/><circle cx="270" cy="150" r="5" fill="#2f8f6b"/><circle cx="80" cy="190" r="4" fill="#e0a91d"/><circle cx="250" cy="196" r="4" fill="#3b83c9"/></svg>
